<svg width="100" height="100" viewBox="0 0 100 100" fill="none" xmlns="http://www.w3.org/2000/svg">
  <rect width="100" height="100" rx="20" fill="#3b82f6"/>
  <circle cx="50" cy="50" r="35" fill="white" stroke="#3b82f6" stroke-width="2"/>
  <path d="M50 20C36.2 20 25 31.2 25 45C25 58.8 36.2 70 50 70C63.8 70 75 58.8 75 45C75 31.2 63.8 20 50 20ZM50 65C39 65 30 56 30 45C30 34 39 25 50 25C61 25 70 34 70 45C70 56 61 65 50 65Z" fill="#3b82f6"/>
  <path d="M65 45H50V30C58 30 65 37 65 45Z" fill="#3b82f6"/>
  <path d="M50 60V45H35C35 53 42 60 50 60Z" fill="#3b82f6"/>
  <path d="M50 80L60 90H40L50 80Z" fill="#3b82f6"/>
</svg>
